<svg xmlns="http://www.w3.org/2000/svg" viewBox="0 0 1020 540">
  <defs>
    <marker id="arrowBad" markerWidth="8" markerHeight="6" refX="4" refY="3" orient="auto">
      <polygon points="0 0, 8 3, 0 6" fill="#fca5a5"/>
    </marker>
    <marker id="arrowGood" markerWidth="8" markerHeight="6" refX="4" refY="3" orient="auto">
      <polygon points="0 0, 8 3, 0 6" fill="#2563eb"/>
    </marker>
    <filter id="shadow" x="-6%" y="-6%" width="112%" height="112%">
      <feDropShadow dx="0" dy="2" stdDeviation="3" flood-opacity="0.08"/>
    </filter>
    <linearGradient id="redStrip" x1="0" y1="0" x2="1" y2="0">
      <stop offset="0%" stop-color="#fef2f2"/>
      <stop offset="100%" stop-color="#fee2e2"/>
    </linearGradient>
    <linearGradient id="greenStrip" x1="0" y1="0" x2="1" y2="0">
      <stop offset="0%" stop-color="#f0fdf4"/>
      <stop offset="100%" stop-color="#dcfce7"/>
    </linearGradient>
  </defs>
  <rect width="1020" height="540" fill="#ffffff"/>
  <text x="510" y="34" text-anchor="middle" font-family="system-ui, sans-serif" font-size="20" font-weight="bold" fill="#1e293b">传统方式 vs MCP 方式：集成模式对比</text>
  <rect x="20" y="55" width="480" height="420" rx="10" fill="url(#redStrip)" opacity="0.5"/>
  <rect x="520" y="55" width="480" height="420" rx="10" fill="url(#greenStrip)" opacity="0.5"/>
  <line x1="510" y1="70" x2="510" y2="460" stroke="#cbd5e1" stroke-width="1.5" stroke-dasharray="6,4"/>
  <rect x="485" y="250" width="50" height="24" rx="12" fill="#f1f5f9" stroke="#cbd5e1" stroke-width="1"/>
  <text x="510" y="267" text-anchor="middle" font-family="system-ui, sans-serif" font-size="12" font-weight="bold" fill="#64748b">VS</text>
  <rect x="35" y="72" width="450" height="32" rx="6" fill="#dc2626"/>
  <text x="260" y="94" text-anchor="middle" font-family="system-ui, sans-serif" font-size="15" font-weight="bold" fill="#ffffff">传统方式：N × M 集成难题</text>
  <text x="260" y="118" text-anchor="middle" font-family="system-ui, sans-serif" font-size="11" fill="#94a3b8">每个 AI 应用都要单独对接每个工具</text>
  <rect x="50" y="140" width="150" height="46" rx="8" fill="#ffffff" stroke="#fca5a5" stroke-width="1.5" filter="url(#shadow)"/>
  <text x="125" y="169" text-anchor="middle" font-family="system-ui, sans-serif" font-size="13" font-weight="bold" fill="#991b1b">Claude Code</text>
  <rect x="50" y="210" width="150" height="46" rx="8" fill="#ffffff" stroke="#fca5a5" stroke-width="1.5" filter="url(#shadow)"/>
  <text x="125" y="239" text-anchor="middle" font-family="system-ui, sans-serif" font-size="13" font-weight="bold" fill="#991b1b">Cursor</text>
  <rect x="50" y="280" width="150" height="46" rx="8" fill="#ffffff" stroke="#fca5a5" stroke-width="1.5" filter="url(#shadow)"/>
  <text x="125" y="309" text-anchor="middle" font-family="system-ui, sans-serif" font-size="13" font-weight="bold" fill="#991b1b">ChatGPT</text>
  <rect x="50" y="350" width="150" height="46" rx="8" fill="#ffffff" stroke="#fca5a5" stroke-width="1.5" filter="url(#shadow)"/>
  <text x="125" y="379" text-anchor="middle" font-family="system-ui, sans-serif" font-size="13" font-weight="bold" fill="#991b1b">Copilot</text>
  <rect x="320" y="140" width="150" height="46" rx="8" fill="#ffffff" stroke="#fca5a5" stroke-width="1.5" filter="url(#shadow)"/>
  <text x="395" y="169" text-anchor="middle" font-family="system-ui, sans-serif" font-size="13" fill="#991b1b">GitHub API</text>
  <rect x="320" y="210" width="150" height="46" rx="8" fill="#ffffff" stroke="#fca5a5" stroke-width="1.5" filter="url(#shadow)"/>
  <text x="395" y="239" text-anchor="middle" font-family="system-ui, sans-serif" font-size="13" fill="#991b1b">数据库</text>
  <rect x="320" y="280" width="150" height="46" rx="8" fill="#ffffff" stroke="#fca5a5" stroke-width="1.5" filter="url(#shadow)"/>
  <text x="395" y="309" text-anchor="middle" font-family="system-ui, sans-serif" font-size="13" fill="#991b1b">文件系统</text>
  <rect x="320" y="350" width="150" height="46" rx="8" fill="#ffffff" stroke="#fca5a5" stroke-width="1.5" filter="url(#shadow)"/>
  <text x="395" y="379" text-anchor="middle" font-family="system-ui, sans-serif" font-size="13" fill="#991b1b">Slack API</text>
  <line x1="200" y1="163" x2="320" y2="163" stroke="#fca5a5" stroke-width="0.7" opacity="0.21"/>
  <line x1="200" y1="163" x2="320" y2="233" stroke="#fca5a5" stroke-width="0.7" opacity="0.27"/>
  <line x1="200" y1="163" x2="320" y2="303" stroke="#fca5a5" stroke-width="0.7" opacity="0.40"/>
  <line x1="200" y1="163" x2="320" y2="373" stroke="#fca5a5" stroke-width="0.7" opacity="0.23"/>
  <line x1="200" y1="233" x2="320" y2="163" stroke="#fca5a5" stroke-width="0.7" opacity="0.21"/>
  <line x1="200" y1="233" x2="320" y2="233" stroke="#fca5a5" stroke-width="0.7" opacity="0.35"/>
  <line x1="200" y1="233" x2="320" y2="303" stroke="#fca5a5" stroke-width="0.7" opacity="0.26"/>
  <line x1="200" y1="233" x2="320" y2="373" stroke="#fca5a5" stroke-width="0.7" opacity="0.36"/>
  <line x1="200" y1="303" x2="320" y2="163" stroke="#fca5a5" stroke-width="0.7" opacity="0.38"/>
  <line x1="200" y1="303" x2="320" y2="233" stroke="#fca5a5" stroke-width="0.7" opacity="0.20"/>
  <line x1="200" y1="303" x2="320" y2="303" stroke="#fca5a5" stroke-width="0.7" opacity="0.41"/>
  <line x1="200" y1="303" x2="320" y2="373" stroke="#fca5a5" stroke-width="0.7" opacity="0.25"/>
  <line x1="200" y1="373" x2="320" y2="163" stroke="#fca5a5" stroke-width="0.7" opacity="0.30"/>
  <line x1="200" y1="373" x2="320" y2="233" stroke="#fca5a5" stroke-width="0.7" opacity="0.23"/>
  <line x1="200" y1="373" x2="320" y2="303" stroke="#fca5a5" stroke-width="0.7" opacity="0.38"/>
  <line x1="200" y1="373" x2="320" y2="373" stroke="#fca5a5" stroke-width="0.7" opacity="0.42"/>
  <rect x="80" y="405" width="360" height="55" rx="8" fill="#fef2f2" stroke="#fecaca" stroke-width="1"/>
  <text x="260" y="425" text-anchor="middle" font-family="system-ui, sans-serif" font-size="13" font-weight="bold" fill="#dc2626">4 应用 × 4 工具 = 16 套集成代码</text>
  <text x="260" y="446" text-anchor="middle" font-family="system-ui, sans-serif" font-size="11" fill="#ef4444">每增一个都要写新适配，维护成本呈指数增长</text>
  <rect x="535" y="72" width="450" height="32" rx="6" fill="#059669"/>
  <text x="760" y="94" text-anchor="middle" font-family="system-ui, sans-serif" font-size="15" font-weight="bold" fill="#ffffff">MCP 方式：标准化集成</text>
  <text x="760" y="118" text-anchor="middle" font-family="system-ui, sans-serif" font-size="11" fill="#94a3b8">工具只需实现一次 MCP Server，所有 Host 通用</text>
  <rect x="545" y="140" width="140" height="46" rx="8" fill="#ffffff" stroke="#86efac" stroke-width="1.5" filter="url(#shadow)"/>
  <text x="615" y="169" text-anchor="middle" font-family="system-ui, sans-serif" font-size="13" font-weight="bold" fill="#065f46">Claude Code</text>
  <rect x="545" y="210" width="140" height="46" rx="8" fill="#ffffff" stroke="#86efac" stroke-width="1.5" filter="url(#shadow)"/>
  <text x="615" y="239" text-anchor="middle" font-family="system-ui, sans-serif" font-size="13" font-weight="bold" fill="#065f46">Cursor</text>
  <rect x="545" y="280" width="140" height="46" rx="8" fill="#ffffff" stroke="#86efac" stroke-width="1.5" filter="url(#shadow)"/>
  <text x="615" y="309" text-anchor="middle" font-family="system-ui, sans-serif" font-size="13" font-weight="bold" fill="#065f46">ChatGPT</text>
  <rect x="545" y="350" width="140" height="46" rx="8" fill="#ffffff" stroke="#86efac" stroke-width="1.5" filter="url(#shadow)"/>
  <text x="615" y="379" text-anchor="middle" font-family="system-ui, sans-serif" font-size="13" font-weight="bold" fill="#065f46">Copilot</text>
  <rect x="710" y="160" width="100" height="206" rx="8" fill="#ecfdf5" stroke="#34d399" stroke-width="2" filter="url(#shadow)"/>
  <text x="760" y="250" text-anchor="middle" font-family="system-ui, sans-serif" font-size="15" font-weight="bold" fill="#059669">MCP</text>
  <text x="760" y="272" text-anchor="middle" font-family="system-ui, sans-serif" font-size="12" fill="#059669">协议层</text>
  <line x1="725" y1="282" x2="795" y2="282" stroke="#86efac" stroke-width="0.8"/>
  <text x="760" y="298" text-anchor="middle" font-family="system-ui, sans-serif" font-size="11" fill="#6ee7b7">JSON-RPC</text>
  <text x="760" y="314" text-anchor="middle" font-family="system-ui, sans-serif" font-size="11" fill="#6ee7b7">2.0</text>
  <rect x="835" y="140" width="150" height="46" rx="8" fill="#ffffff" stroke="#86efac" stroke-width="1.5" filter="url(#shadow)"/>
  <text x="910" y="169" text-anchor="middle" font-family="system-ui, sans-serif" font-size="12" fill="#065f46">GitHub Server</text>
  <rect x="835" y="210" width="150" height="46" rx="8" fill="#ffffff" stroke="#86efac" stroke-width="1.5" filter="url(#shadow)"/>
  <text x="910" y="239" text-anchor="middle" font-family="system-ui, sans-serif" font-size="12" fill="#065f46">DB Server</text>
  <rect x="835" y="280" width="150" height="46" rx="8" fill="#ffffff" stroke="#86efac" stroke-width="1.5" filter="url(#shadow)"/>
  <text x="910" y="309" text-anchor="middle" font-family="system-ui, sans-serif" font-size="12" fill="#065f46">File Server</text>
  <rect x="835" y="350" width="150" height="46" rx="8" fill="#ffffff" stroke="#86efac" stroke-width="1.5" filter="url(#shadow)"/>
  <text x="910" y="379" text-anchor="middle" font-family="system-ui, sans-serif" font-size="12" fill="#065f46">Slack Server</text>
  <line x1="685" y1="163" x2="710" y2="163" stroke="#2563eb" stroke-width="1.2" marker-end="url(#arrowGood)"/>
  <line x1="685" y1="233" x2="710" y2="233" stroke="#2563eb" stroke-width="1.2" marker-end="url(#arrowGood)"/>
  <line x1="685" y1="303" x2="710" y2="303" stroke="#2563eb" stroke-width="1.2" marker-end="url(#arrowGood)"/>
  <line x1="685" y1="373" x2="710" y2="373" stroke="#2563eb" stroke-width="1.2" marker-end="url(#arrowGood)"/>
  <line x1="810" y1="163" x2="835" y2="163" stroke="#2563eb" stroke-width="1.2" marker-end="url(#arrowGood)"/>
  <line x1="810" y1="233" x2="835" y2="233" stroke="#2563eb" stroke-width="1.2" marker-end="url(#arrowGood)"/>
  <line x1="810" y1="303" x2="835" y2="303" stroke="#2563eb" stroke-width="1.2" marker-end="url(#arrowGood)"/>
  <line x1="810" y1="373" x2="835" y2="373" stroke="#2563eb" stroke-width="1.2" marker-end="url(#arrowGood)"/>
  <rect x="580" y="405" width="360" height="55" rx="8" fill="#f0fdf4" stroke="#bbf7d0" stroke-width="1"/>
  <text x="760" y="425" text-anchor="middle" font-family="system-ui, sans-serif" font-size="13" font-weight="bold" fill="#059669">4 应用 + 4 个 Server = 只需 4 套 MCP 适配</text>
  <text x="760" y="446" text-anchor="middle" font-family="system-ui, sans-serif" font-size="11" fill="#22c55e">标准协议，一次编写，任何兼容 Host 都能用</text>
  <rect x="200" y="480" width="120" height="30" rx="15" fill="#dc2626"/>
  <text x="260" y="500" text-anchor="middle" font-family="system-ui, sans-serif" font-size="14" font-weight="bold" fill="#ffffff">N × M 模式</text>
  <rect x="700" y="480" width="120" height="30" rx="15" fill="#059669"/>
  <text x="760" y="500" text-anchor="middle" font-family="system-ui, sans-serif" font-size="14" font-weight="bold" fill="#ffffff">N + M 模式</text>
</svg>